<?xml version="1.0" ?><svg id="Layer_1_1_" style="enable-background:new 0 0 64 64;" version="1.1" viewBox="0 0 64 64" xml:space="preserve" xmlns="http://www.w3.org/2000/svg" xmlns:xlink="http://www.w3.org/1999/xlink"><path d="M57.305,51.723C58.336,50.806,59,49.485,59,48c0-2.757-2.243-5-5-5s-5,2.243-5,5c0,1.485,0.664,2.806,1.695,3.723  C47.93,52.984,46,55.768,46,59v2c0,0.553,0.447,1,1,1h14c0.553,0,1-0.447,1-1v-2C62,55.768,60.07,52.984,57.305,51.723z M51,48  c0-1.654,1.346-3,3-3s3,1.346,3,3s-1.346,3-3,3S51,49.654,51,48z M60,60H48v-1c0-3.309,2.691-6,6-6s6,2.691,6,6V60z"/><path d="M3,62h14c0.553,0,1-0.447,1-1v-2c0-3.232-1.93-6.016-4.695-7.277C14.336,50.806,15,49.485,15,48c0-2.757-2.243-5-5-5  s-5,2.243-5,5c0,1.485,0.664,2.806,1.695,3.723C3.93,52.984,2,55.768,2,59v2C2,61.553,2.447,62,3,62z M7,48c0-1.654,1.346-3,3-3  s3,1.346,3,3s-1.346,3-3,3S7,49.654,7,48z M4,59c0-3.309,2.691-6,6-6s6,2.691,6,6v1H4V59z"/><path d="M3,21h14c0.553,0,1-0.447,1-1v-2c0-3.232-1.93-6.016-4.695-7.277C14.336,9.806,15,8.485,15,7c0-2.757-2.243-5-5-5  S5,4.243,5,7c0,1.485,0.664,2.806,1.695,3.723C3.93,11.984,2,14.768,2,18v2C2,20.553,2.447,21,3,21z M7,7c0-1.654,1.346-3,3-3  s3,1.346,3,3s-1.346,3-3,3S7,8.654,7,7z M4,18c0-3.309,2.691-6,6-6s6,2.691,6,6v1H4V18z"/><path d="M57.305,10.723C58.336,9.806,59,8.485,59,7c0-2.757-2.243-5-5-5s-5,2.243-5,5c0,1.485,0.664,2.806,1.695,3.723  C47.93,11.984,46,14.768,46,18v2c0,0.553,0.447,1,1,1h14c0.553,0,1-0.447,1-1v-2C62,14.768,60.07,11.984,57.305,10.723z M51,7  c0-1.654,1.346-3,3-3s3,1.346,3,3s-1.346,3-3,3S51,8.654,51,7z M60,19H48v-1c0-3.309,2.691-6,6-6s6,2.691,6,6V19z"/><path d="M32,23c-4.963,0-9,4.037-9,9s4.037,9,9,9s9-4.037,9-9S36.963,23,32,23z M32,39c-3.859,0-7-3.141-7-7s3.141-7,7-7  s7,3.141,7,7S35.859,39,32,39z"/><path d="M46,36c0.553,0,1-0.447,1-1v-6c0-0.553-0.447-1-1-1l-1.651-0.026c-0.207-0.637-0.466-1.263-0.784-1.882l1.163-1.163  c0.391-0.391,0.391-1.023,0-1.414l-4.242-4.242c-0.391-0.391-1.023-0.391-1.414,0l-1.187,1.147  c-0.596-0.303-1.222-0.562-1.885-0.773V18c0-0.553-0.447-1-1-1h-6c-0.553,0-1,0.447-1,1l-0.026,1.651  c-0.637,0.207-1.263,0.466-1.882,0.784l-1.163-1.163c-0.391-0.391-1.023-0.391-1.414,0l-4.242,4.242  c-0.391,0.391-0.391,1.023,0,1.414l1.147,1.187c-0.303,0.596-0.562,1.222-0.773,1.885H18c-0.553,0-1,0.447-1,1v6  c0,0.553,0.447,1,1,1l1.651,0.026c0.207,0.639,0.466,1.264,0.784,1.882l-1.163,1.163c-0.391,0.391-0.391,1.023,0,1.414l4.242,4.242  c0.391,0.391,1.023,0.391,1.414,0l1.187-1.148c0.595,0.304,1.22,0.562,1.885,0.774V46c0,0.553,0.447,1,1,1h6c0.553,0,1-0.447,1-1  l0.026-1.651c0.639-0.207,1.264-0.466,1.882-0.784l1.163,1.163c0.391,0.391,1.023,0.391,1.414,0l4.242-4.242  c0.391-0.391,0.391-1.023,0-1.414l-1.148-1.187c0.304-0.595,0.562-1.22,0.774-1.885H46z M42.446,35.409  c-0.175,0.538-0.393,1.065-0.649,1.568c-0.401,0.789-0.26,1.731,0.354,2.345l0.456,0.456l-2.828,2.828l-0.456-0.456  c-0.614-0.614-1.556-0.755-2.346-0.353c-0.502,0.256-1.029,0.474-1.569,0.649C34.565,42.722,34,43.488,34,44.354V45h-4v-0.646  c0-0.865-0.565-1.632-1.409-1.907c-0.538-0.175-1.065-0.393-1.568-0.649c-0.789-0.402-1.731-0.261-2.345,0.354l-0.456,0.456  l-2.828-2.828l0.456-0.456c0.613-0.613,0.755-1.556,0.353-2.346c-0.256-0.502-0.474-1.029-0.649-1.569  C21.278,34.565,20.512,34,19.646,34H19v-4h0.646c0.865,0,1.632-0.565,1.907-1.409c0.175-0.538,0.393-1.065,0.648-1.568  c0.402-0.789,0.261-1.731-0.353-2.345l-0.456-0.456l2.828-2.828l0.456,0.456c0.612,0.613,1.555,0.756,2.344,0.354  c0.504-0.257,1.031-0.475,1.571-0.65C29.435,21.278,30,20.512,30,19.646V19h4v0.646c0,0.865,0.565,1.632,1.409,1.907  c0.538,0.175,1.065,0.393,1.568,0.648c0.789,0.404,1.731,0.26,2.345-0.353l0.456-0.456l2.828,2.828l-0.456,0.456  c-0.613,0.613-0.755,1.556-0.354,2.344c0.257,0.504,0.475,1.031,0.65,1.571C42.722,29.435,43.488,30,44.354,30H45v4h-0.646  C43.488,34,42.722,34.565,42.446,35.409z"/><path d="M36.555,31.168l-6-4c-0.306-0.204-0.701-0.224-1.026-0.05S29,27.631,29,28v8c0,0.369,0.203,0.708,0.528,0.882  C29.676,36.961,29.838,37,30,37c0.194,0,0.388-0.057,0.555-0.168l6-4C36.833,32.646,37,32.334,37,32S36.833,31.354,36.555,31.168z   M31,34.132v-4.264L34.197,32L31,34.132z"/><rect height="2" width="2" x="9" y="23"/><rect height="2" width="2" x="9" y="27"/><rect height="2" width="2" x="9" y="31"/><rect height="2" width="2" x="9" y="35"/><rect height="2" width="2" x="9" y="39"/><rect height="2" width="2" x="53" y="23"/><rect height="2" width="2" x="53" y="27"/><rect height="2" width="2" x="53" y="31"/><rect height="2" width="2" x="53" y="35"/><rect height="2" width="2" x="53" y="39"/><rect height="2" width="2" x="39" y="9"/><rect height="2" width="2" x="35" y="9"/><rect height="2" width="2" x="31" y="9"/><rect height="2" width="2" x="27" y="9"/><rect height="2" width="2" x="23" y="9"/><rect height="2" width="2" x="39" y="53"/><rect height="2" width="2" x="35" y="53"/><rect height="2" width="2" x="31" y="53"/><rect height="2" width="2" x="27" y="53"/><rect height="2" width="2" x="23" y="53"/></svg>