<?xml version="1.0" ?><svg data-name="Layer 1" id="Layer_1" viewBox="0 0 64 64" xmlns="http://www.w3.org/2000/svg"><title/><path d="M57.12988,2H18.87012A4.87543,4.87543,0,0,0,14,6.87012V25.02533C13.833,25.01807,13.66876,25,13.5,25A11.5131,11.5131,0,0,0,2,36.5V61H4V36.5a9.5,9.5,0,0,1,19,0V39a.99943.99943,0,0,0,.21924.625L25.91943,43H24a.99974.99974,0,0,0-1,1v3H19a.99974.99974,0,0,0-1,1v3a1.00018,1.00018,0,0,0,.80371.98047L23,52.8197V55H12a.99974.99974,0,0,0-1,1v5h2V57H24a.99974.99974,0,0,0,1-1V45h3a.99991.99991,0,0,0,.78076-1.625L27.68066,42H34l-4.7998,6.40039a.9999.9999,0,0,0,1.24707,1.49414L46.23584,42h10.894A4.87543,4.87543,0,0,0,62,37.12988V6.87012A4.87543,4.87543,0,0,0,57.12988,2ZM23,50.78027l-3-.59961V49h3ZM60,37.12988A2.87315,2.87315,0,0,1,57.12988,40H46a1.00067,1.00067,0,0,0-.44727.10547L33.3418,46.21094l3.458-4.61133A.99955.99955,0,0,0,36,40H26.08057L25,38.64941V36.5a11.51447,11.51447,0,0,0-9-11.2182V6.87012A2.87315,2.87315,0,0,1,18.87012,4H57.12988A2.87315,2.87315,0,0,1,60,6.87012Z"/><path d="M21,36H19a2,2,0,0,1-4,0H13a4,4,0,0,0,8,0Z"/><path d="M57.31592,23.05078l-.83008-.27539a8.74119,8.74119,0,0,1-3.396-2.09961L51,18.58594V7a.99974.99974,0,0,0-1-1H29a.99974.99974,0,0,0-1,1V37a.99974.99974,0,0,0,1,1H50a.99974.99974,0,0,0,1-1V35.63226a12.52934,12.52934,0,0,0,7-11.24847V24A1.00149,1.00149,0,0,0,57.31592,23.05078ZM49,36H30V8H49V18.58594l-2.08984,2.08984a8.72921,8.72921,0,0,1-3.39551,2.09863l-.83057.27637A1.00149,1.00149,0,0,0,42,24v.38379a12.52934,12.52934,0,0,0,7,11.24847Zm1-2.09766a10.537,10.537,0,0,1-5.99463-9.18261l.1416-.04785a10.73517,10.73517,0,0,0,4.17725-2.582L50,20.41406l1.67578,1.67578a10.747,10.747,0,0,0,4.17774,2.583l.14111.04688A10.537,10.537,0,0,1,50,33.90234Z"/><rect height="2" width="7" x="36" y="9"/><rect height="2" width="2" x="32" y="14"/><rect height="2" width="11" x="36" y="14"/><rect height="2" width="2" x="32" y="18"/><rect height="2" width="9" x="36" y="18"/><rect height="2" width="2" x="32" y="22"/><rect height="2" width="4" x="36" y="22"/><rect height="2" width="2" x="32" y="26"/><rect height="2" width="4" x="36" y="26"/><rect height="2" width="2" x="32" y="30"/><rect height="2" width="6" x="36" y="30"/><path d="M50,24a3,3,0,1,0,3,3A3.00328,3.00328,0,0,0,50,24Zm0,4a1,1,0,1,1,1-1A1.001,1.001,0,0,1,50,28Z"/><rect height="2" width="2" x="58" y="55"/><rect height="2" width="2" x="58" y="59"/><rect height="2" width="2" x="60" y="57"/><rect height="2" width="2" x="56" y="57"/><rect height="2" width="2" x="45" y="50"/><rect height="2" width="2" x="45" y="54"/><rect height="2" width="2" x="47" y="52"/><rect height="2" width="2" x="43" y="52"/></svg>