<svg xmlns="http://www.w3.org/2000/svg" data-name="Layer 1" viewBox="0 0 64 80" x="0px" y="0px"><title>security-key-guard-wall-protect</title><path d="M24,28v2H23a1,1,0,0,0-1,1V48a1,1,0,0,0,1,1H41a1,1,0,0,0,1-1V31a1,1,0,0,0-1-1H40V28a8,8,0,0,0-16,0Zm16,4V47H24V32H40ZM30,30V28a2,2,0,0,1,4,0v2Zm8-2v2H36V28a4,4,0,0,0-8,0v2H26V28a6,6,0,0,1,12,0Z"/><path d="M32,34a3.988,3.988,0,0,0-3,6.629V44a1,1,0,0,0,1,1h4a1,1,0,0,0,1-1V40.629A3.988,3.988,0,0,0,32,34Zm1.331,5.478a1,1,0,0,0-.331.743V43H31V40.221a1,1,0,0,0-.331-.743A1.971,1.971,0,0,1,30,38a2,2,0,0,1,4,0A1.971,1.971,0,0,1,33.331,39.478Z"/><path d="M58,10a4,4,0,0,0-3.858,3H50a1,1,0,0,0-1,1v7.331q-1.544-.6-3-1.32V9.858a4,4,0,1,0-2,0v9.073A29.643,29.643,0,0,1,33.406,8.856a1,1,0,0,0-.291-.306l-.552-.376a1,1,0,0,0-1.126,0l-.552.376a1,1,0,0,0-.291.306A28.179,28.179,0,0,1,24,16.214V9.858a4,4,0,1,0-2,0v7.83a34.788,34.788,0,0,1-5,2.792V6a1,1,0,0,0-1-1H9.858a4,4,0,1,0,0,2H15V21.331A38.472,38.472,0,0,1,9.955,22.9a1.011,1.011,0,0,0-.334.148l-.185.127A1,1,0,0,0,9,24v2.834A38.609,38.609,0,0,0,31.586,61.91a1,1,0,0,0,.828,0A38.609,38.609,0,0,0,55,26.834V24a1,1,0,0,0-.436-.825l-.185-.127a1.011,1.011,0,0,0-.334-.148c-1.036-.246-2.051-.535-3.045-.859V15h3.142A3.993,3.993,0,1,0,58,10ZM6,8A2,2,0,1,1,8,6,2,2,0,0,1,6,8ZM43,6a2,2,0,1,1,2,2A2,2,0,0,1,43,6ZM21,6a2,2,0,1,1,2,2A2,2,0,0,1,21,6ZM53,24.7v2.131A36.606,36.606,0,0,1,32,59.9,36.606,36.606,0,0,1,11,26.834V24.7A38.315,38.315,0,0,0,23.609,19H24v-.28a30.809,30.809,0,0,0,8-8.339C36.373,17.242,43.971,22.424,53,24.7ZM58,16a2,2,0,1,1,2-2A2,2,0,0,1,58,16Z"/><text x="0" y="79" fill="#000000" font-size="5px" font-weight="bold" font-family="'Helvetica Neue', Helvetica, Arial-Unicode, Arial, Sans-serif">Created by Nithinan Tatah</text><text x="0" y="84" fill="#000000" font-size="5px" font-weight="bold" font-family="'Helvetica Neue', Helvetica, Arial-Unicode, Arial, Sans-serif">from the Noun Project</text></svg>