<svg xmlns="http://www.w3.org/2000/svg" viewBox="0 0 48 60" x="0px" y="0px"><title>12-management</title><g data-name="12-management"><path d="M17.32,32a1,1,0,0,0,.64-.23l6.2-5.12,6.19,5.12A1,1,0,0,0,31,32a1,1,0,0,0,.78-.37,1,1,0,0,0-.14-1.41l-6.46-5.34V17.64a1,1,0,0,0-2,0v7.21l-6.47,5.34A1,1,0,0,0,17.32,32Z"/><path d="M4.75,22.05l.22,0a1,1,0,0,0,1-.78,18.31,18.31,0,0,1,2.48-6l.06-.1a18.39,18.39,0,0,1,3.15-3.69l-.18,1.23a1,1,0,0,0,.85,1.13h.14a1,1,0,0,0,1-.86L14,9.17a1,1,0,0,0-.25-.82A1,1,0,0,0,13,8L9,8.21a1,1,0,1,0,.09,2l1.12-.05a20.09,20.09,0,0,0-3.43,4.07.41.41,0,0,0,0,.09A20.51,20.51,0,0,0,4,20.86,1,1,0,0,0,4.75,22.05Z"/><path d="M33.27,9a18.59,18.59,0,0,1,7.52,7.82c.17.33.3.67.45,1l-.93-.58A1,1,0,0,0,39.25,19l3.32,2.07a1,1,0,0,0,.53.15.86.86,0,0,0,.32-.05A1,1,0,0,0,44,20.7l0-.08,0-.05,1.44-3.73a1,1,0,1,0-1.86-.72l-.44,1.14c-.19-.44-.39-.87-.6-1.31a20.72,20.72,0,0,0-8.34-8.66,1,1,0,1,0-1,1.75Z"/><path d="M34,41.18a18.35,18.35,0,0,1-10.87,2.76,18.89,18.89,0,0,1-4.53-.84l.91-.3a1,1,0,0,0-.64-1.9l-3.71,1.26a1,1,0,0,0-.62.59,1,1,0,0,0,.07.84l2,3.48a1,1,0,0,0,.87.51,1.07,1.07,0,0,0,.49-.12,1,1,0,0,0,.38-1.37l-.68-1.2a20.86,20.86,0,0,0,5.37,1c.39,0,.78,0,1.17,0a20.69,20.69,0,0,0,10.89-3.09A1,1,0,1,0,34,41.18Z"/><path d="M11.2,32.49a4.41,4.41,0,1,0-6,0,6.13,6.13,0,0,0-3.11,5.34v.43a1,1,0,0,0,1,1h10.3a1,1,0,0,0,1-1v-.43A6.16,6.16,0,0,0,11.2,32.49Zm-3-5.59a2.41,2.41,0,1,1-2.41,2.41A2.41,2.41,0,0,1,8.17,26.9ZM4.1,37.3a4.15,4.15,0,0,1,8.23,0Z"/><path d="M19,14.82h10.3a1,1,0,0,0,1-1v-.44A6.15,6.15,0,0,0,27.15,8a4.41,4.41,0,1,0-6,0A6.17,6.17,0,0,0,18,13.38v.44A1,1,0,0,0,19,14.82Zm5.1-12.4a2.41,2.41,0,1,1-2.4,2.4A2.41,2.41,0,0,1,24.11,2.42Zm.05,6.81a4.17,4.17,0,0,1,4.12,3.59H20.05A4.17,4.17,0,0,1,24.16,9.23Z"/><path d="M42.77,32.49a4.41,4.41,0,1,0-6,0,6.15,6.15,0,0,0-3.11,5.34v.43a1,1,0,0,0,1,1h10.3a1,1,0,0,0,1-1v-.43A6.17,6.17,0,0,0,42.77,32.49Zm-3-5.59a2.41,2.41,0,1,1-2.41,2.41A2.41,2.41,0,0,1,39.73,26.9ZM35.67,37.3a4.15,4.15,0,0,1,8.23,0Z"/></g><text x="0" y="63" fill="#000000" font-size="5px" font-weight="bold" font-family="'Helvetica Neue', Helvetica, Arial-Unicode, Arial, Sans-serif">Created by Makinshine</text><text x="0" y="68" fill="#000000" font-size="5px" font-weight="bold" font-family="'Helvetica Neue', Helvetica, Arial-Unicode, Arial, Sans-serif">from the Noun Project</text></svg>