<svg xmlns:dc="http://purl.org/dc/elements/1.1/" xmlns:cc="http://creativecommons.org/ns#" xmlns:rdf="http://www.w3.org/1999/02/22-rdf-syntax-ns#" xmlns:svg="http://www.w3.org/2000/svg" xmlns="http://www.w3.org/2000/svg" xmlns:sodipodi="http://sodipodi.sourceforge.net/DTD/sodipodi-0.dtd" xmlns:inkscape="http://www.inkscape.org/namespaces/inkscape" viewBox="0 0 16 20" version="1.1" x="0px" y="0px"><g transform="translate(0,-1036.3622)"><g transform="translate(0,0.0198085)"><g transform="translate(1100.5659,-21.019708)"><path style="color:#000000;font-style:normal;font-variant:normal;font-weight:normal;font-stretch:normal;font-size:medium;line-height:normal;font-family:sans-serif;text-indent:0;text-align:start;text-decoration:none;text-decoration-line:none;text-decoration-style:solid;text-decoration-color:#000000;letter-spacing:normal;word-spacing:normal;text-transform:none;direction:ltr;block-progression:tb;writing-mode:lr-tb;baseline-shift:baseline;text-anchor:start;white-space:normal;clip-rule:nonzero;display:inline;overflow:visible;visibility:visible;opacity:1;isolation:auto;mix-blend-mode:normal;color-interpolation:sRGB;color-interpolation-filters:linearRGB;solid-color:#000000;solid-opacity:1;fill:#000000;fill-opacity:1;fill-rule:evenodd;stroke:none;stroke-width:1px;stroke-linecap:butt;stroke-linejoin:miter;stroke-miterlimit:4;stroke-dasharray:none;stroke-dashoffset:0;stroke-opacity:1;color-rendering:auto;image-rendering:auto;shape-rendering:auto;text-rendering:auto;enable-background:accumulate" d="M 8 1.9960938 L 7.7636719 2.125 L 0.5 6.0390625 L 8 10.080078 L 15.5 6.0390625 L 8 1.9960938 z M 8 3.1308594 L 13.392578 6.0390625 L 8 8.9453125 L 2.6074219 6.0390625 L 8 3.1308594 z M 1.5429688 7.5527344 L 0.5 8.1171875 L 8 12.169922 L 15.5 8.1171875 L 14.457031 7.5527344 L 8 11.041016 L 1.5429688 7.5527344 z M 1.5429688 9.6972656 L 0.5 10.261719 L 8 14.314453 L 15.5 10.261719 L 14.457031 9.6972656 L 8 13.185547 L 1.5429688 9.6972656 z " transform="translate(-1100.5659,1057.3621)"/></g></g></g><text x="0" y="31" fill="#000000" font-size="5px" font-weight="bold" font-family="'Helvetica Neue', Helvetica, Arial-Unicode, Arial, Sans-serif">Created by Chameleon Design</text><text x="0" y="36" fill="#000000" font-size="5px" font-weight="bold" font-family="'Helvetica Neue', Helvetica, Arial-Unicode, Arial, Sans-serif">from the Noun Project</text></svg>