<svg height='100px' width='100px'  fill="#000000" xmlns="http://www.w3.org/2000/svg" data-name="Layer 1" viewBox="0 0 48 48" x="0px" y="0px"><title>Layer</title><path d="M19.34,9.24a4.72,4.72,0,1,0-.24-1.49A18.49,18.49,0,0,0,5.51,25.54H7A17,17,0,0,1,19.34,9.24Zm4.53-4.71A3.28,3.28,0,1,1,20.6,7.81,3.28,3.28,0,0,1,23.87,4.53Z"></path><path d="M24,42.53a16.88,16.88,0,0,1-12.74-5.77A4.76,4.76,0,1,0,8.08,38a4.86,4.86,0,0,0,1.9-.4,18.51,18.51,0,0,0,23.81,3.63L33,40A17,17,0,0,1,24,42.53ZM4.8,33.22A3.28,3.28,0,1,1,8.08,36.5,3.28,3.28,0,0,1,4.8,33.22Z"></path><path d="M42.15,29a18.35,18.35,0,0,0,.34-3.49A18.6,18.6,0,0,0,33.42,9.63l-.77,1.29A17.08,17.08,0,0,1,41,25.54a17.41,17.41,0,0,1-.29,3,4.91,4.91,0,0,0-.78-.08,4.85,4.85,0,1,0,2.23.58ZM39.92,36.5a3.28,3.28,0,1,1,3.28-3.28A3.28,3.28,0,0,1,39.92,36.5Z"></path><path d="M33.79,22.24a.76.76,0,0,0-.37-.65l-9.16-5.42a.81.81,0,0,0-.77,0l-9.16,5.42a.76.76,0,0,0-.37.65.74.74,0,0,0,.37.64l2.14,1.27-2.14,1.26a.76.76,0,0,0,0,1.3l1.93,1.14L14.33,29a.76.76,0,0,0-.37.65.74.74,0,0,0,.37.64l9.16,5.42a.75.75,0,0,0,.38.1.76.76,0,0,0,.39-.1l9.16-5.42a.74.74,0,0,0,.37-.64.76.76,0,0,0-.37-.65l-1.94-1.14,1.94-1.14a.76.76,0,0,0,0-1.3l-2.14-1.26,2.14-1.27A.74.74,0,0,0,33.79,22.24Zm-2.23,7.4-7.69,4.54-7.68-4.54,1.55-.92,5.75,3.4a.73.73,0,0,0,.77,0L30,28.72Zm0-3.58L23.87,30.6l-7.68-4.54,1.75-1,5.55,3.28a.75.75,0,0,0,.38.1.76.76,0,0,0,.39-.1L29.8,25Zm-7.69.72-7.68-4.54,7.68-4.55,7.69,4.55Z"></path></svg>