<svg xmlns="http://www.w3.org/2000/svg" xmlns:xlink="http://www.w3.org/1999/xlink" version="1.1" x="0px" y="0px" viewBox="0 0 64 80" style="enable-background:new 0 0 64 64;" xml:space="preserve"><circle cx="55" cy="49" r="4"/><path d="M55,53c-3.866,0-7,3.134-7,7v2h14v-2C62,56.134,58.866,53,55,53z"/><circle cx="9" cy="49" r="4"/><path d="M16,60c0-3.866-3.134-7-7-7s-7,3.134-7,7v2h14V60z"/><circle cx="9" cy="6" r="4"/><path d="M16,17c0-3.866-3.134-7-7-7s-7,3.134-7,7v2h14V17z"/><circle cx="55" cy="6" r="4"/><path d="M55,10c-3.866,0-7,3.134-7,7v2h14v-2C62,13.134,58.866,10,55,10z"/><path d="M43.398,35.718C43.535,35.296,43.911,35,44.354,35H46v-6h-1.646c-0.443,0-0.819-0.296-0.956-0.718  c-0.193-0.593-0.43-1.165-0.709-1.714c-0.201-0.395-0.144-0.87,0.169-1.184l1.163-1.163l-4.243-4.243l-1.163,1.163  c-0.313,0.313-0.789,0.37-1.184,0.169c-0.548-0.279-1.121-0.516-1.714-0.709C35.296,20.465,35,20.089,35,19.646V18h-6v1.646  c0,0.443-0.296,0.819-0.718,0.956c-0.593,0.193-1.165,0.43-1.714,0.709c-0.395,0.201-0.87,0.144-1.184-0.169l-1.163-1.163  l-4.243,4.243l1.163,1.163c0.313,0.313,0.37,0.789,0.169,1.184c-0.279,0.548-0.516,1.121-0.709,1.714  C20.465,28.704,20.089,29,19.646,29H18v6h1.646c0.443,0,0.819,0.296,0.956,0.718c0.193,0.593,0.43,1.165,0.709,1.713  c0.201,0.395,0.144,0.87-0.169,1.184l-1.163,1.163l4.243,4.243l1.163-1.163c0.313-0.313,0.789-0.37,1.184-0.169  c0.548,0.279,1.121,0.516,1.713,0.709C28.704,43.535,29,43.911,29,44.354V46h6v-1.646c0-0.443,0.296-0.819,0.718-0.956  c0.593-0.193,1.165-0.43,1.713-0.709c0.395-0.201,0.87-0.144,1.184,0.169l1.163,1.163l4.243-4.243l-1.163-1.163  c-0.313-0.313-0.37-0.789-0.169-1.184C42.967,36.883,43.205,36.311,43.398,35.718z M32,40c-4.418,0-8-3.582-8-8s3.582-8,8-8  s8,3.582,8,8S36.418,40,32,40z"/><polygon points="30,36 36,32 30,28 "/><rect x="8" y="23" width="2" height="2"/><rect x="8" y="27" width="2" height="2"/><rect x="8" y="31" width="2" height="2"/><rect x="8" y="35" width="2" height="2"/><rect x="8" y="39" width="2" height="2"/><rect x="54" y="23" width="2" height="2"/><rect x="54" y="27" width="2" height="2"/><rect x="54" y="31" width="2" height="2"/><rect x="54" y="35" width="2" height="2"/><rect x="54" y="39" width="2" height="2"/><rect x="39" y="7" width="2" height="2"/><rect x="35" y="7" width="2" height="2"/><rect x="31" y="7" width="2" height="2"/><rect x="27" y="7" width="2" height="2"/><rect x="23" y="7" width="2" height="2"/><rect x="39" y="55" width="2" height="2"/><rect x="35" y="55" width="2" height="2"/><rect x="31" y="55" width="2" height="2"/><rect x="27" y="55" width="2" height="2"/><rect x="23" y="55" width="2" height="2"/><text x="0" y="79" fill="#000000" font-size="5px" font-weight="bold" font-family="'Helvetica Neue', Helvetica, Arial-Unicode, Arial, Sans-serif">Created by Nithinan Tatah</text><text x="0" y="84" fill="#000000" font-size="5px" font-weight="bold" font-family="'Helvetica Neue', Helvetica, Arial-Unicode, Arial, Sans-serif">from the Noun Project</text></svg>