<svg xmlns="http://www.w3.org/2000/svg" data-name="Layer 1" viewBox="0 0 512 640" x="0px" y="0px"><title>compliance</title><path d="M496,147.527H406.571a6,6,0,0,0-6,6v.854a6,6,0,0,0,4.033,5.668c10.624,3.689,18.044,12.954,18.044,22.531,0,12.924-13.815,23.438-30.8,23.438s-30.8-10.514-30.8-23.438c0-9.573,7.421-18.838,18.047-22.532a6,6,0,0,0,4.03-5.667v-.854a6,6,0,0,0-6-6H289.942c-.021,0-.041,0-.062,0-.078,0-.156-.012-.235-.012H207.334v-1.034c13.187-6.221,22.078-18.95,22.078-32.22,0-19.54-19.2-35.437-42.8-35.437s-42.8,15.9-42.8,35.437c0,13.27,8.892,26,22.078,32.22v1.034H83.587a6,6,0,0,0-6,6v81.037c-6.238-13.1-18.92-21.923-32.15-21.923-19.541,0-35.437,19.2-35.437,42.8s15.9,42.8,35.437,42.8c13.235,0,25.916-8.821,32.15-21.92v83.27a6,6,0,0,0,6,6h85.956a6,6,0,0,0,2.547-11.432c-9.1-4.266-15.209-12.854-15.209-21.37,0-12.922,13.815-23.436,30.8-23.436s30.8,10.514,30.8,23.436c0,8.516-6.114,17.1-15.211,21.37a6,6,0,0,0,2.547,11.432h83.836c.021,0,.041,0,.062,0,.078,0,.156.012.235.012h81.037c-13.1,6.237-21.922,18.92-21.922,32.15,0,19.54,19.2,35.437,42.8,35.437s42.8-15.9,42.8-35.437c0-13.235-8.819-25.916-21.919-32.15H496a6,6,0,0,0,6-6V273.629a6,6,0,0,0-11.433-2.547c-4.265,9.1-12.853,15.209-21.369,15.209-12.924,0-23.437-13.815-23.437-30.8s10.513-30.8,23.437-30.8c8.516,0,17.1,6.113,21.369,15.211A6,6,0,0,0,502,237.363V153.527A6,6,0,0,0,496,147.527ZM187.677,297.338c-23.6,0-42.8,15.9-42.8,35.436a33.627,33.627,0,0,0,7.544,20.8H89.587V270.147a6,6,0,0,0-6-6H73.638a6,6,0,0,0-5.668,4.032c-3.691,10.626-12.957,18.047-22.533,18.047C32.514,286.226,22,272.41,22,255.429s10.514-30.8,23.437-30.8c9.572,0,18.838,7.422,22.534,18.049a6,6,0,0,0,5.667,4.029h9.949a6,6,0,0,0,6-6V159.519H171.9a6,6,0,0,0,6-6V142.466a6,6,0,0,0-4.024-5.665c-10.63-3.708-18.054-12.975-18.054-22.536,0-12.923,13.816-23.437,30.8-23.437s30.8,10.514,30.8,23.437c0,9.56-7.424,18.828-18.055,22.536a6,6,0,0,0-4.023,5.665v11.053a6,6,0,0,0,6,6h82.608v76.319h-1.034c-6.221-13.187-18.95-22.078-32.22-22.078-19.54,0-35.436,19.2-35.436,42.8s15.9,42.8,35.436,42.8c13.271,0,26-8.892,32.22-22.079h1.034v76.3H222.928a33.628,33.628,0,0,0,7.545-20.8C230.473,313.234,211.274,297.338,187.677,297.338ZM490,220.244a33.628,33.628,0,0,0-20.8-7.545c-19.54,0-35.437,19.2-35.437,42.8s15.9,42.8,35.437,42.8a33.627,33.627,0,0,0,20.8-7.544v62.838H406.571a6,6,0,0,0-6,6v9.949A6,6,0,0,0,404.6,375.2c10.625,3.691,18.045,12.957,18.045,22.533,0,12.923-13.815,23.437-30.8,23.437s-30.8-10.514-30.8-23.437c0-9.572,7.422-18.839,18.047-22.534a6,6,0,0,0,4.03-5.667v-9.949a6,6,0,0,0-6-6H295.942V271.274a6,6,0,0,0-6-6H278.889a6,6,0,0,0-5.665,4.025c-3.708,10.63-12.975,18.054-22.536,18.054-12.922,0-23.436-13.816-23.436-30.8s10.514-30.8,23.436-30.8c9.561,0,18.828,7.424,22.536,18.054a6,6,0,0,0,5.665,4.024h11.053a6,6,0,0,0,6-6V159.527h62.643a34.3,34.3,0,0,0-9.528,23.053c0,19.54,19.2,35.438,42.8,35.438s42.8-15.9,42.8-35.438a34.306,34.306,0,0,0-9.524-23.053H490Z"/><text x="0" y="527" fill="#000000" font-size="5px" font-weight="bold" font-family="'Helvetica Neue', Helvetica, Arial-Unicode, Arial, Sans-serif">Created by Icongeek26</text><text x="0" y="532" fill="#000000" font-size="5px" font-weight="bold" font-family="'Helvetica Neue', Helvetica, Arial-Unicode, Arial, Sans-serif">from the Noun Project</text></svg>