<svg xmlns="http://www.w3.org/2000/svg" xmlns:xlink="http://www.w3.org/1999/xlink" version="1.1" x="0px" y="0px" viewBox="0 0 100 125" style="enable-background:new 0 0 100 100;" xml:space="preserve"><path d="M40.231,38.586v5.977h-0.979c-1.972,0-3.576,1.604-3.576,3.576v8.551c0,7.967,6.481,14.448,14.448,14.448  s14.448-6.481,14.448-14.448v-8.551c0-1.972-1.604-3.576-3.576-3.576h-0.979v-5.977c0-5.455-4.438-9.894-9.894-9.894  S40.231,33.131,40.231,38.586z M62.573,48.139v8.551c0,6.864-5.584,12.448-12.448,12.448s-12.448-5.584-12.448-12.448v-8.551  c0-0.869,0.707-1.576,1.576-1.576h21.745C61.866,46.562,62.573,47.27,62.573,48.139z M54.161,44.562h-8.071v-5.637  c0-2.225,1.811-4.035,4.036-4.035s4.036,1.811,4.036,4.035V44.562z M58.019,38.586v5.977h-1.858v-5.637  c0-3.328-2.708-6.035-6.036-6.035s-6.036,2.707-6.036,6.035v5.637h-1.858v-5.977c0-4.353,3.541-7.894,7.894-7.894  S58.019,34.233,58.019,38.586z"/><path d="M49.125,57.961v3.295c0,0.553,0.448,1,1,1s1-0.447,1-1v-3.295c1.487-0.436,2.583-1.797,2.583-3.424  c0-1.976-1.607-3.583-3.583-3.583s-3.583,1.607-3.583,3.583C46.542,56.163,47.638,57.524,49.125,57.961z M50.125,52.953  c0.873,0,1.583,0.71,1.583,1.583s-0.71,1.584-1.583,1.584s-1.583-0.711-1.583-1.584S49.252,52.953,50.125,52.953z"/><path d="M79.691,16.268c0.469,2.427,2.604,4.268,5.167,4.268c2.904,0,5.267-2.363,5.267-5.268s-2.363-5.267-5.267-5.267  c-2.562,0-4.697,1.84-5.167,4.267H68.295c-0.294,0-0.573,0.13-0.764,0.354l-8.581,10.143c-2.764-0.973-5.733-1.508-8.826-1.508  s-6.062,0.535-8.826,1.508l-8.581-10.143c-0.19-0.225-0.47-0.354-0.764-0.354H20.559c-0.469-2.427-2.604-4.267-5.167-4.267  c-2.904,0-5.267,2.362-5.267,5.267s2.363,5.268,5.267,5.268c2.562,0,4.697-1.841,5.167-4.268h10.932l7.849,9.277  c-9.076,4.033-15.494,12.986-15.849,23.456h-2.949c-0.507-2.378-2.621-4.169-5.148-4.169c-2.904,0-5.267,2.363-5.267,5.268  s2.363,5.268,5.267,5.268c2.596,0,4.746-1.892,5.176-4.366h2.926c0.424,10.505,6.951,19.463,16.128,23.412l-7.919,9.359H20.559  c-0.469-2.427-2.604-4.268-5.167-4.268c-2.904,0-5.267,2.363-5.267,5.268s2.363,5.268,5.267,5.268c2.562,0,4.697-1.841,5.167-4.268  h11.608c0.294,0,0.573-0.13,0.763-0.354l8.673-10.25c2.678,0.906,5.542,1.405,8.523,1.405s5.845-0.499,8.523-1.405l8.673,10.25  c0.19,0.225,0.469,0.354,0.763,0.354h11.608c0.469,2.427,2.604,4.268,5.167,4.268c2.904,0,5.267-2.363,5.267-5.268  s-2.363-5.268-5.267-5.268c-2.562,0-4.697,1.841-5.167,4.268H68.547l-7.919-9.359c9.176-3.949,15.704-12.907,16.128-23.412h2.926  c0.43,2.474,2.58,4.366,5.176,4.366c2.904,0,5.267-2.363,5.267-5.268s-2.363-5.268-5.267-5.268c-2.528,0-4.641,1.791-5.148,4.169  H76.76c-0.355-10.47-6.773-19.423-15.849-23.456l7.849-9.277H79.691z M84.858,12.001c1.801,0,3.267,1.466,3.267,3.267  c0,1.802-1.466,3.268-3.267,3.268c-1.802,0-3.268-1.466-3.268-3.268C81.59,13.467,83.056,12.001,84.858,12.001z M15.392,18.535  c-1.801,0-3.267-1.466-3.267-3.268c0-1.801,1.466-3.267,3.267-3.267c1.802,0,3.268,1.466,3.268,3.267  C18.66,17.069,17.194,18.535,15.392,18.535z M15.392,53.367c-1.801,0-3.267-1.466-3.267-3.268s1.466-3.268,3.267-3.268  c1.802,0,3.268,1.466,3.268,3.268S17.194,53.367,15.392,53.367z M15.392,88.04c-1.801,0-3.267-1.466-3.267-3.268  s1.466-3.268,3.267-3.268c1.802,0,3.268,1.466,3.268,3.268S17.194,88.04,15.392,88.04z M84.858,81.505  c1.801,0,3.267,1.466,3.267,3.268s-1.466,3.268-3.267,3.268c-1.802,0-3.268-1.466-3.268-3.268S83.056,81.505,84.858,81.505z   M84.858,46.832c1.801,0,3.267,1.466,3.267,3.268s-1.466,3.268-3.267,3.268c-1.802,0-3.268-1.466-3.268-3.268  S83.056,46.832,84.858,46.832z M74.783,49.915c0,13.597-11.062,24.658-24.658,24.658S25.467,63.512,25.467,49.915  s11.062-24.658,24.658-24.658S74.783,36.318,74.783,49.915z"/><text x="0" y="115" fill="#000000" font-size="5px" font-weight="bold" font-family="'Helvetica Neue', Helvetica, Arial-Unicode, Arial, Sans-serif">Created by Made</text><text x="0" y="120" fill="#000000" font-size="5px" font-weight="bold" font-family="'Helvetica Neue', Helvetica, Arial-Unicode, Arial, Sans-serif">from the Noun Project</text></svg>